<svg xmlns="http://www.w3.org/2000/svg" viewBox="0 0 18.34 18.33"><title>logo-shape</title><g id="Layer_2" data-name="Layer 2"><g id="Layer_1-2" data-name="Layer 1"><path d="M18.34,2.13,16.2,0,14.44,1.77A9,9,0,0,0,9.19.17,8.79,8.79,0,0,0,.2,9a9,9,0,0,0,1.68,5.28L0,16.2l2.13,2.13L4,16.42a9.16,9.16,0,0,0,5.11,1.5,8.79,8.79,0,0,0,9-8.88,8.93,8.93,0,0,0-1.58-5.13ZM3.36,9a5.81,5.81,0,0,1,5.79-6.1,5.72,5.72,0,0,1,3.17.94L4.11,12.09A6.46,6.46,0,0,1,3.36,9Zm5.83,6.11a5.73,5.73,0,0,1-3-.85l8.14-8.15A6.5,6.5,0,0,1,15,9,5.81,5.81,0,0,1,9.19,15.15Z"/></g></g></svg>