<svg xmlns="http://www.w3.org/2000/svg" viewBox="0 0 460.22 37.91"><title>logo</title><g id="Layer_2" data-name="Layer 2"><g id="Layer_1-2" data-name="Layer 1"><polygon points="6.23 36.41 0 36.41 0 0.94 6.23 0.94 6.23 18.78 23.11 0.94 30.76 0.94 16.02 16.19 31.42 36.41 23.87 36.41 11.76 20.45 6.23 26.13 6.23 36.41"/><polygon points="201.62 30.89 180.69 30.89 201.62 5.55 201.62 0.94 173.24 0.94 173.24 6.47 193.51 6.47 172.58 31.8 172.58 36.41 201.62 36.41 201.62 30.89"/><polygon points="244.95 17.71 234.15 0.94 227.52 0.94 227.52 36.41 233.65 36.41 233.65 11.08 244.75 27.7 244.95 27.7 256.15 10.98 256.15 36.41 262.38 36.41 262.38 0.94 255.75 0.94 244.95 17.71"/><polygon points="316.85 6.51 316.85 0.94 290.55 0.94 290.55 36.41 317.1 36.41 317.1 30.84 296.78 30.84 296.78 21.31 314.57 21.31 314.57 15.74 296.78 15.74 296.78 6.51 316.85 6.51"/><polygon points="352.09 36.42 358.37 36.42 358.37 6.72 369.62 6.72 369.62 0.94 340.84 0.94 340.84 6.72 352.09 6.72 352.09 36.42"/><rect x="394.39" y="0.94" width="6.24" height="35.47"/><path d="M89,4.41,84.57,0,80.92,3.65A18.76,18.76,0,0,0,70.07.36,18.17,18.17,0,0,0,51.48,18.7,18.54,18.54,0,0,0,55,29.62L51.07,33.5l4.41,4.41,4-3.95A18.84,18.84,0,0,0,70,37.05,18.18,18.18,0,0,0,88.57,18.7,18.56,18.56,0,0,0,85.31,8.08ZM58,18.7c0-7,4.92-12.62,12-12.62A11.83,11.83,0,0,1,76.54,8l-17,17A13.27,13.27,0,0,1,58,18.7ZM70.07,31.32a11.82,11.82,0,0,1-6.25-1.75L80.66,12.73a13.47,13.47,0,0,1,1.37,6C82,25.69,77.12,31.32,70.07,31.32Z"/><path d="M150.5,4.41,146.09,0l-3.65,3.65A18.76,18.76,0,0,0,131.6.36,18.18,18.18,0,0,0,113,18.7a18.52,18.52,0,0,0,3.48,10.91l-3.89,3.89L117,37.91,121,34a18.89,18.89,0,0,0,10.55,3.09A18.18,18.18,0,0,0,150.1,18.7a18.69,18.69,0,0,0-3.26-10.63Zm-31,14.29c0-7,4.92-12.62,12-12.62A11.79,11.79,0,0,1,138.06,8l-17,17A13.44,13.44,0,0,1,119.54,18.7ZM131.6,31.32a11.71,11.71,0,0,1-6.25-1.76l16.83-16.83a13.34,13.34,0,0,1,1.38,6C143.56,25.69,138.65,31.32,131.6,31.32Z"/><polygon points="459.56 0.94 451.91 0.94 435.03 18.78 435.03 0.94 428.8 0.94 428.8 36.41 435.03 36.41 435.03 26.13 440.56 20.45 452.67 36.41 460.22 36.41 444.81 16.2 459.56 0.94"/></g></g></svg>