<svg xmlns="http://www.w3.org/2000/svg" viewBox="0 0 120 121.32"><defs><style>.cls-1{fill:#fff;}</style></defs><title>logo-square</title><g id="Layer_2" data-name="Layer 2"><g id="Layer_1-2" data-name="Layer 1"><path class="cls-1" d="M5,29.06H0V.77H5V15L18.43.77h6.11L12.78,12.93,25.06,29.06H19L9.38,16.33,5,20.86ZM23.16,70.79H6.47L23.16,50.58V46.9H.52v4.4H16.69L0,71.52v3.67H23.16Zm34.3-10.51L48.85,46.9H43.56V75.19h4.89V55L57.3,68.24h.16L66.4,54.9V75.19h5V46.9h-5.3Zm58.13-8.94V46.9h-21V75.19h21.18V70.75H99.58v-7.6h14.19V58.7H99.58V51.34ZM9,121.32h5V97.64h9V93H0v4.61H9Zm46,0h5V93H55ZM42.34,26.72l3.1-3.1a14.81,14.81,0,0,1-2.77-8.7A14.5,14.5,0,0,1,57.5.28a15,15,0,0,1,8.65,2.63L69.07,0l3.51,3.51L69.66,6.44a14.9,14.9,0,0,1,2.6,8.48A14.5,14.5,0,0,1,57.42,29.55,15,15,0,0,1,49,27.09l-3.15,3.15ZM66,10.15,52.52,23.58a9.38,9.38,0,0,0,5,1.4C63.12,25,67,20.49,67,14.92A10.82,10.82,0,0,0,66,10.15ZM49.12,19.94,62.66,6.41a9.38,9.38,0,0,0-5.24-1.56c-5.62,0-9.54,4.49-9.54,10.07A10.69,10.69,0,0,0,49.12,19.94Zm40.64,6.78,3.1-3.1a14.81,14.81,0,0,1-2.77-8.7A14.5,14.5,0,0,1,104.92.28a15,15,0,0,1,8.65,2.63L116.48,0,120,3.51l-2.93,2.93a14.83,14.83,0,0,1,2.61,8.48,14.5,14.5,0,0,1-14.84,14.63,15,15,0,0,1-8.41-2.47l-3.15,3.16Zm23.6-16.57L99.93,23.58a9.44,9.44,0,0,0,5,1.4c5.62,0,9.54-4.49,9.54-10.06A10.69,10.69,0,0,0,113.36,10.15ZM96.54,19.94,110.07,6.41a9.32,9.32,0,0,0-5.23-1.56c-5.62,0-9.54,4.49-9.54,10.07A10.69,10.69,0,0,0,96.54,19.94ZM119.15,93h-6.1L99.59,107.26V93h-5v28.29h5v-8.2l4.4-4.53,9.67,12.73h6L107.39,105.2Z"/></g></g></svg>